<?xml version="1.0" standalone="no"?>
<!DOCTYPE svg PUBLIC "-//W3C//DTD SVG 20010904//EN"
 "http://www.w3.org/TR/2001/REC-SVG-20010904/DTD/svg10.dtd">
<svg version="1.0" xmlns="http://www.w3.org/2000/svg"
 width="700.000000pt" height="700.000000pt" viewBox="0 0 700.000000 700.000000"
 preserveAspectRatio="xMidYMid meet">
<metadata>
Created by potrace 1.11, written by Peter Selinger 2001-2013
</metadata>
<g transform="translate(0.000000,700.000000) scale(0.100000,-0.100000)"
fill="#000000" stroke="none">
<path d="M2585 5933 c-16 -1 -163 -4 -325 -6 -291 -3 -296 -3 -375 -30 -117
-40 -226 -98 -303 -162 -144 -119 -208 -227 -376 -645 -48 -118 -91 -224 -96
-235 -5 -11 -30 -72 -56 -135 -62 -153 -240 -578 -436 -1045 -88 -209 -173
-416 -189 -460 -47 -135 -182 -120 1102 -123 l1103 -3 42 23 c23 12 49 34 58
49 19 32 20 105 3 136 -22 39 -121 137 -373 369 -414 381 -521 489 -571 572
-147 246 -127 620 47 866 106 150 284 267 470 309 73 17 411 20 2333 21 l2098
2 22 39 c13 22 30 58 39 80 9 22 36 88 61 146 45 107 72 197 63 206 -15 15
-123 19 -561 22 -580 4 -3738 7 -3780 4z"/>
<path d="M2470 4780 c-53 -10 -77 -26 -105 -74 -29 -49 -31 -73 -11 -120 17
-41 66 -90 430 -426 33 -30 67 -62 76 -70 9 -8 60 -55 115 -105 234 -214 272
-257 329 -372 71 -144 95 -244 91 -385 -5 -147 -37 -257 -119 -407 -52 -96
-184 -232 -289 -299 -43 -27 -75 -52 -70 -55 12 -7 151 -9 548 -9 356 0 398 4
429 35 20 20 154 328 287 660 33 83 67 166 74 182 7 17 28 66 45 110 18 44 40
99 51 122 10 23 19 46 19 51 0 4 11 32 25 60 14 29 25 56 25 62 0 6 4 18 10
28 5 9 28 62 51 117 23 55 49 116 57 135 9 19 16 40 18 45 1 6 13 35 27 65 14
30 42 96 62 145 187 456 199 494 153 496 -173 7 -396 9 -1268 12 -564 2 -1041
0 -1060 -3z"/>
<path d="M5548 4771 c-22 -13 -42 -36 -61 -76 -25 -51 -204 -480 -259 -620
-11 -27 -31 -77 -45 -110 -14 -33 -31 -73 -38 -90 -7 -16 -34 -82 -60 -145
-51 -125 -139 -337 -160 -385 -80 -184 -258 -619 -310 -758 -31 -83 -32 -88
-16 -108 16 -20 25 -21 206 -20 105 1 201 3 215 5 14 3 48 7 75 10 98 11 262
82 360 155 104 78 205 192 249 279 21 42 335 791 481 1147 32 77 84 205 117
285 62 150 142 358 153 397 12 42 -20 46 -462 49 -379 2 -414 1 -445 -15z"/>
<path d="M374 1906 c-8 -35 1 -56 26 -56 13 0 20 7 21 20 1 11 2 28 3 38 1 10
-7 18 -21 20 -17 3 -24 -3 -29 -22z"/>
<path d="M762 1904 c-40 -20 -54 -33 -66 -65 -9 -22 -16 -48 -16 -59 0 -24
-26 -40 -64 -40 -8 0 -13 -8 -11 -17 2 -10 4 -22 4 -27 1 -4 7 -6 14 -3 20 7
50 -8 54 -29 5 -26 6 -334 2 -339 -2 -2 -20 -5 -39 -7 -29 -4 -35 -8 -35 -29
0 -24 1 -24 103 -24 99 0 102 0 102 22 0 15 -6 24 -17 25 -10 0 -22 2 -28 3
-5 2 -14 3 -20 4 -14 1 -13 347 0 360 6 6 22 12 35 14 19 3 25 10 25 28 0 13
-6 25 -12 25 -7 1 -21 2 -32 3 -49 3 -20 97 38 121 19 7 31 20 31 31 0 29 -14
30 -68 3z"/>
<path d="M5688 1922 c-15 -3 -18 -15 -18 -68 0 -87 -10 -104 -60 -104 -37 0
-40 -2 -40 -29 0 -27 3 -29 49 -35 l48 -6 1 -83 c0 -45 0 -139 1 -209 l1 -128
35 0 c19 0 36 3 36 8 1 4 2 96 4 205 1 108 4 200 8 203 7 7 35 12 75 13 29 1
32 4 32 31 0 29 -2 30 -42 30 -63 0 -69 7 -71 90 -2 62 -6 74 -22 80 -11 3
-28 5 -37 2z"/>
<path d="M6934 1915 c-4 -10 -11 -113 -13 -187 l-1 -26 -55 30 c-114 61 -247
35 -328 -64 -91 -113 -75 -273 38 -362 53 -43 95 -59 158 -58 66 0 88 5 143
36 l44 25 6 -25 c5 -19 13 -24 40 -24 l34 0 0 330 c0 182 -3 330 -7 331 -5 0
-19 2 -31 3 -13 2 -26 -2 -28 -9z m-121 -236 c34 -18 88 -71 99 -99 31 -74 10
-161 -52 -217 -88 -79 -229 -50 -284 59 -38 77 -24 157 40 221 15 15 41 31 58
36 44 13 114 13 139 0z"/>
<path d="M10 1910 c-18 -11 -5 -40 19 -40 47 0 49 -12 48 -290 -1 -255 -1
-260 -21 -261 -12 -1 -28 -2 -36 -3 -8 0 -16 -12 -18 -26 l-3 -25 106 0 c102
-1 105 0 105 22 0 17 -7 23 -35 29 l-35 6 -1 152 c-1 153 -5 412 -8 432 -1 13
-101 16 -121 4z"/>
<path d="M2079 1759 c-63 -9 -100 -30 -148 -85 -46 -53 -61 -95 -61 -175 0
-188 208 -311 379 -225 52 27 71 27 71 0 0 -9 11 -14 35 -14 l35 0 0 246 0
245 -37 -3 c-30 -2 -37 -7 -35 -20 4 -24 -23 -23 -59 3 -35 25 -116 37 -180
28z m133 -85 c133 -69 135 -270 3 -334 -84 -41 -162 -25 -223 44 -79 90 -56
232 46 286 46 24 131 26 174 4z"/>
<path d="M3250 1760 c-81 -11 -159 -69 -196 -145 -21 -45 -25 -150 -7 -201 18
-52 78 -115 139 -144 39 -19 57 -22 124 -18 66 4 84 9 114 31 19 15 38 27 42
27 13 0 -6 -73 -28 -106 -40 -58 -135 -81 -211 -49 -19 8 -51 33 -70 57 -35
42 -83 59 -99 35 -11 -17 28 -82 72 -120 75 -64 183 -78 280 -36 54 24 75 42
107 93 25 38 25 41 27 302 l2 264 -38 0 c-34 0 -38 -3 -38 -25 0 -31 -1 -31
-51 2 -45 30 -103 41 -169 33z m147 -106 c70 -56 92 -140 58 -222 -49 -116
-173 -150 -273 -75 -105 79 -89 256 30 317 53 27 138 17 185 -20z"/>
<path d="M3804 1761 c-13 -13 -74 -27 -86 -20 -20 13 -68 11 -69 -3 -3 -76 -1
-470 4 -474 3 -3 19 -7 36 -8 l31 -2 1 115 c2 230 7 259 51 296 58 49 165 21
187 -48 6 -18 12 -105 13 -194 l3 -161 28 -5 c37 -5 45 8 45 73 0 196 5 261
24 298 44 90 175 82 213 -12 7 -19 13 -92 14 -191 1 -89 7 -162 12 -166 5 -3
22 -4 37 -1 l27 4 -2 156 c-4 211 -8 236 -46 278 -42 49 -81 65 -157 66 -53 0
-109 -21 -137 -51 -17 -18 -23 -20 -34 -9 -24 23 -63 44 -94 53 -35 9 -94 13
-101 6z"/>
<path d="M2899 1749 c-9 -5 -14 -38 -15 -101 -3 -181 -7 -223 -22 -253 -28
-56 -61 -75 -131 -75 -38 0 -56 6 -80 25 -42 36 -51 74 -56 222 -2 70 -4 140
-4 156 -1 24 -5 27 -37 27 l-36 0 5 -184 c5 -168 8 -188 28 -223 53 -92 189
-127 284 -73 34 19 39 20 54 5 10 -8 29 -15 42 -15 l25 0 1 244 0 244 -23 5
c-12 2 -28 0 -35 -4z"/>
<path d="M4605 1741 c-51 -23 -106 -78 -130 -127 -26 -55 -25 -167 3 -220 27
-53 73 -99 125 -126 53 -26 151 -26 213 1 44 20 120 92 130 125 14 42 -58 42
-90 0 -70 -94 -199 -98 -282 -8 -35 38 -48 70 -31 81 5 3 100 8 209 9 110 2
203 6 208 9 12 8 4 75 -14 119 -42 101 -125 156 -235 156 -43 0 -80 -7 -106
-19z m191 -70 c37 -23 84 -81 84 -104 0 -15 -18 -17 -170 -17 -112 0 -170 4
-170 10 0 35 56 101 100 119 43 17 122 13 156 -8z"/>
<path d="M5178 1740 c-32 -17 -38 -17 -49 -4 -7 9 -25 14 -42 12 l-31 -3 0
-238 c-1 -258 1 -265 52 -246 21 8 22 14 23 111 1 223 10 261 72 298 65 40
162 15 198 -52 6 -11 13 -77 16 -147 2 -69 5 -144 6 -166 2 -39 3 -40 37 -40
l35 0 1 140 c1 185 -8 232 -53 285 -20 24 -52 49 -70 56 -49 21 -151 18 -195
-6z"/>
<path d="M6054 1746 c-48 -21 -107 -79 -132 -130 -70 -140 15 -322 168 -363
34 -9 130 -3 161 10 58 25 139 111 139 149 0 33 -54 23 -89 -17 -44 -51 -89
-75 -139 -75 -76 0 -149 45 -173 107 -19 50 -22 49 199 51 114 0 210 1 215 1
12 1 8 80 -7 116 -23 53 -66 106 -113 135 -36 23 -54 27 -120 28 -48 1 -90 -4
-109 -12z m185 -77 c40 -22 96 -93 86 -109 -8 -14 -332 -13 -340 0 -14 23 50
97 105 122 33 15 112 8 149 -13z"/>
<path d="M320 1736 c-23 -23 -4 -46 41 -46 18 0 19 -9 20 -120 2 -262 3 -250
-20 -250 -33 0 -51 -11 -51 -31 0 -10 6 -20 13 -20 37 -4 189 0 194 4 2 3 2
15 -2 27 -4 12 -9 19 -12 17 -2 -3 -16 -2 -30 2 l-26 7 -3 203 c-2 112 -5 205
-6 206 -11 9 -109 10 -118 1z"/>
<path d="M1052 1714 c-90 -45 -139 -133 -129 -235 9 -104 69 -179 172 -213 81
-26 185 2 247 68 63 67 32 79 -53 21 -35 -24 -80 -46 -99 -49 -78 -12 -166 40
-201 119 -16 34 -16 41 -3 48 8 5 104 9 214 11 110 1 202 5 206 8 3 4 -2 33
-11 67 -44 155 -201 226 -343 155z m194 -45 c63 -30 122 -117 92 -135 -19 -12
-338 -8 -350 4 -15 15 6 63 40 95 65 60 143 73 218 36z"/>
<path d="M1602 1400 c-23 -10 -42 -46 -42 -80 0 -34 35 -64 74 -64 74 0 107
83 52 131 -29 24 -47 27 -84 13z"/>
</g>
</svg>
