<?xml version="1.0" standalone="no"?>
<!DOCTYPE svg PUBLIC "-//W3C//DTD SVG 20010904//EN"
 "http://www.w3.org/TR/2001/REC-SVG-20010904/DTD/svg10.dtd">
<svg version="1.0" xmlns="http://www.w3.org/2000/svg"
 width="700.000000pt" height="700.000000pt" viewBox="0 0 700.000000 700.000000"
 preserveAspectRatio="xMidYMid meet">
<metadata>
Created by potrace 1.11, written by Peter Selinger 2001-2013
</metadata>
<g transform="translate(0.000000,700.000000) scale(0.100000,-0.100000)"
fill="#000000" stroke="none">
<path d="M2044 6987 c-3 -8 -4 -45 -2 -83 3 -63 5 -69 26 -72 12 -2 23 0 23 5
7 42 5 131 -2 145 -11 21 -37 24 -45 5z"/>
<path d="M1626 6824 c-3 -9 -6 -18 -6 -20 0 -2 25 -29 55 -59 54 -53 77 -61
89 -29 7 17 -95 124 -118 124 -7 0 -17 -7 -20 -16z"/>
<path d="M2422 6787 c-55 -56 -60 -68 -37 -87 12 -10 24 -3 70 41 36 34 55 60
55 75 0 39 -31 29 -88 -29z"/>
<path d="M1970 6790 c-45 -9 -106 -35 -128 -55 -110 -100 -127 -137 -127 -280
0 -127 18 -177 87 -242 22 -21 54 -58 71 -83 30 -43 31 -49 35 -165 3 -130 13
-162 49 -171 13 -4 32 -17 43 -31 13 -16 33 -27 59 -30 33 -5 43 -1 71 26 18
17 38 31 45 31 7 0 20 9 30 20 16 17 19 41 22 141 3 143 10 162 94 247 75 75
100 135 105 247 3 92 -13 148 -63 220 -34 47 -117 107 -168 119 -42 11 -183
15 -225 6z m245 -77 c103 -54 149 -131 151 -248 2 -110 -14 -150 -96 -237 -55
-57 -73 -85 -86 -128 -16 -53 -18 -56 -46 -54 -37 3 -45 10 -51 49 -3 17 -10
51 -15 78 -10 51 -3 58 32 32 28 -21 42 -19 70 12 70 75 31 155 -77 157 -40 1
-52 -3 -68 -23 -19 -23 -20 -23 -34 -5 -8 10 -15 23 -15 27 0 15 22 51 42 67
22 18 15 50 -11 50 -37 -1 -94 -77 -87 -116 9 -42 26 -72 51 -91 19 -13 28
-30 31 -58 2 -22 7 -53 10 -70 5 -26 13 -71 17 -100 1 -5 -13 -9 -32 -9 -33 0
-35 2 -49 51 -11 40 -31 70 -87 132 -79 87 -95 125 -97 222 -3 110 39 192 125
246 58 37 80 41 187 39 75 -1 103 -6 135 -23z m-96 -399 c32 -7 38 -18 22 -43
-13 -20 -71 4 -71 30 0 21 3 22 49 13z m49 -348 c-3 -19 -10 -21 -100 -21 -96
-1 -98 0 -98 22 0 23 1 24 100 22 95 -2 101 -4 98 -23z m0 -100 c-3 -19 -10
-21 -88 -22 -89 -1 -123 8 -114 29 3 10 31 14 105 13 95 0 100 -1 97 -20z"/>
<path d="M2587 5895 c-17 -5 -40 -23 -51 -38 -20 -27 -21 -42 -23 -290 -1
-144 -2 -264 -2 -267 -1 -3 -117 -6 -259 -6 -225 -1 -261 -3 -284 -18 -66 -43
-62 -148 7 -180 28 -14 76 -17 285 -17 183 0 250 -4 251 -12 0 -7 2 -127 2
-267 2 -270 4 -283 51 -314 22 -14 60 -16 276 -16 l250 0 0 -175 0 -175 -545
0 c-589 0 -588 0 -617 -53 -16 -29 -15 -19 -17 -170 l-1 -133 -73 -12 c-306
-47 -591 -283 -707 -582 -60 -156 -66 -221 -65 -677 l0 -412 -45 -12 c-141
-38 -274 -146 -344 -279 -42 -80 -55 -124 -62 -216 -7 -77 1 -104 40 -129 35
-23 64 -26 101 -10 45 18 61 47 74 133 14 88 39 142 95 200 35 38 98 80 131
89 124 33 212 23 304 -37 87 -55 145 -149 157 -251 7 -63 29 -116 54 -129 53
-28 125 -12 150 36 13 23 16 104 6 149 -28 131 -71 213 -160 301 -74 72 -149
117 -236 139 l-45 12 0 444 c0 496 1 502 72 645 97 198 301 352 516 390 l37 6
0 -891 c0 -979 -3 -934 60 -966 22 -12 66 -15 189 -15 l160 0 0 -218 -1 -218
-94 1 c-110 1 -149 -10 -178 -48 -21 -28 -21 -38 -22 -490 -1 -254 -2 -471 -3
-482 -1 -20 -8 -20 -200 -21 -223 0 -239 -4 -267 -63 -24 -50 -4 -109 46 -134
33 -16 141 -17 1923 -15 l1889 3 29 33 c45 50 37 121 -18 157 -25 17 -50 19
-233 20 l-205 0 -2 470 c-1 259 -3 477 -5 486 -12 55 -62 76 -182 78 -55 0
-101 3 -104 5 -6 7 -4 417 3 424 3 3 75 6 160 7 l156 1 32 32 32 32 1 903 1
902 24 -3 c280 -38 526 -260 598 -543 17 -67 19 -116 20 -501 l2 -427 -50 -15
c-99 -29 -190 -85 -257 -157 -94 -101 -153 -264 -145 -400 1 -32 42 -75 77
-82 76 -14 128 36 138 134 10 106 62 194 149 252 67 46 140 67 214 61 99 -7
147 -29 221 -98 58 -54 88 -116 105 -216 11 -63 20 -88 40 -107 47 -48 144
-27 168 35 6 15 8 58 5 98 -18 222 -179 419 -396 484 l-55 16 -1 415 c-1 440
-3 467 -40 597 -98 337 -401 607 -736 654 -43 6 -78 14 -79 17 0 3 -1 67 -3
141 -1 86 -7 144 -15 158 -27 51 -39 52 -620 52 -505 0 -539 1 -543 18 -2 9
-3 87 -3 172 l1 155 254 5 c140 3 263 9 273 14 45 22 50 56 51 331 l1 260 195
2 c334 3 331 2 362 31 36 33 45 80 23 125 -27 58 -38 60 -322 61 l-258 1 -1
263 c-1 282 -3 296 -53 329 -24 16 -90 17 -915 18 -571 0 -900 -3 -919 -10z
m1681 -707 l-3 -503 -762 -1 c-686 0 -763 1 -764 15 -4 45 -5 968 -1 979 3 9
166 12 768 12 l764 0 -2 -502z m-577 -718 c1 -3 2 -80 3 -172 1 -145 -1 -168
-14 -169 -58 -3 -347 -4 -357 -1 -10 3 -13 46 -12 172 0 92 2 169 4 171 5 6
375 5 376 -1z m1184 -1562 l0 -1003 -1369 0 -1368 0 0 970 c1 534 1 985 2
1003 l0 32 1368 0 1367 0 0 -1002z m-2020 -1441 l1 -217 -56 -1 c-130 -1 -264
1 -268 5 -6 7 -5 412 1 423 3 4 76 8 164 8 l158 -1 0 -217z m1086 183 c0 -19
1 -116 1 -215 l1 -180 -109 -5 c-68 -3 -117 -11 -130 -19 -49 -32 -48 -26 -49
-533 0 -262 -3 -480 -7 -483 -3 -3 -69 -7 -147 -8 l-141 -2 0 473 c0 259 0
474 0 477 0 3 -6 18 -14 33 -24 46 -61 60 -159 61 -48 0 -95 0 -105 1 -16 0
-17 16 -16 213 1 116 2 214 3 217 0 3 197 5 436 5 l435 0 1 -35z m537 -183 l2
-217 -52 0 c-92 -1 -242 -1 -260 -1 -17 1 -18 18 -18 215 0 134 4 216 10 218
5 2 79 3 162 2 l153 0 3 -217z m-1330 -839 l-3 -413 -453 0 -452 0 0 75 c-1
112 -1 723 0 738 0 9 98 12 456 12 l456 0 -4 -412z m1622 257 l0 -155 -240 0
c-188 0 -247 -3 -268 -14 -68 -35 -73 -132 -11 -177 31 -22 40 -22 275 -23
l244 -1 0 -152 0 -153 -102 -1 c-100 0 -727 0 -779 1 l-26 0 0 415 0 415 454
0 453 0 0 -155z"/>
<path d="M3086 5418 c-21 -6 -55 -27 -77 -49 -59 -59 -74 -140 -40 -214 22
-48 54 -79 103 -100 149 -62 303 79 257 235 -30 100 -137 157 -243 128z"/>
<path d="M3797 5416 c-145 -54 -171 -251 -44 -341 36 -26 51 -30 108 -30 55 0
72 4 108 28 83 55 109 169 59 259 -42 74 -151 114 -231 84z"/>
<path d="M3730 3362 c-18 -9 -41 -30 -51 -46 -17 -29 -19 -56 -19 -359 0 -276
2 -334 15 -362 30 -62 116 -75 166 -26 16 16 30 35 30 43 6 61 3 660 -3 684
-16 62 -82 93 -138 66z"/>
<path d="M4268 3372 c-43 -5 -88 -56 -89 -100 -3 -136 0 -622 5 -647 3 -16 19
-42 36 -57 52 -48 127 -33 160 30 11 23 13 106 11 569 l-1 141 -29 30 c-33 32
-52 39 -93 34z"/>
<path d="M2695 3362 c-80 -27 -81 -29 -80 -418 1 -307 2 -342 18 -365 42 -63
132 -62 174 0 23 34 23 37 23 363 0 368 -2 383 -65 412 -35 17 -39 18 -70 8z"/>
<path d="M3213 3363 c-12 -2 -34 -18 -48 -34 -29 -35 -26 1 -27 -438 l0 -294
31 -31 c43 -43 106 -44 149 -3 16 15 29 33 30 40 1 6 2 161 3 344 1 304 0 334
-17 362 -16 28 -70 63 -91 60 -4 -1 -18 -4 -30 -6z"/>
</g>
</svg>
